<svg width="45" height="57" viewBox="0 0 45 57" fill="none" xmlns="http://www.w3.org/2000/svg">
<g filter="url(#filter0_d_1_3)">
<mask id="path-1-outside-1_1_3" maskUnits="userSpaceOnUse" x="4" y="0" width="37" height="49" fill="black">
<rect fill="white" x="4" width="37" height="49"/>
<path d="M9.84 47.7C9.28 47.7 8.69667 47.6067 8.09 47.42C7.53 47.2333 7.06333 46.79 6.69 46.09C6.31667 45.39 6.13 44.3167 6.13 42.87C6.13 41.9367 6.2 40.7467 6.34 39.3C6.52667 37.8067 6.71333 36.36 6.9 34.96C7.27333 32.6267 7.6 30.06 7.88 27.26C8.20667 24.46 8.37 21.6833 8.37 18.93C8.37 17.95 8.34667 16.9233 8.3 15.85C8.25333 14.7767 8.16 13.75 8.02 12.77C7.74 12.91 7.41333 13.05 7.04 13.19C6.71333 13.2833 6.43333 13.33 6.2 13.33C5.73333 13.33 5.40667 13.0967 5.22 12.63C5.08 12.1167 5.01 11.5333 5.01 10.88C5.01 9.38666 5.36 8.19666 6.06 7.31C6.80667 6.37667 7.90333 5.53667 9.35 4.79C11.2633 3.71666 13.2933 2.94666 15.44 2.48C17.6333 1.96667 19.71 1.71 21.67 1.71C24.5633 1.71 27.13 2.22333 29.37 3.25C31.61 4.27666 33.36 5.72333 34.62 7.59C35.88 9.45667 36.51 11.6967 36.51 14.31C36.51 17.0167 35.8567 19.42 34.55 21.52C33.29 23.62 31.6567 25.3467 29.65 26.7C27.69 28.0067 25.6833 28.87 23.63 29.29C24.3767 30.4567 25.17 31.6233 26.01 32.79C26.8967 33.9567 27.7833 35.0067 28.67 35.94C31.33 38.6933 34.0367 40.07 36.79 40.07C37.5367 40.07 38.19 40.0233 38.75 39.93C39.03 39.8833 39.2633 40 39.45 40.28C39.6833 40.5133 39.8 41.0033 39.8 41.75C39.8 42.6367 39.6133 43.5467 39.24 44.48C38.8667 45.3667 38.2367 46.1133 37.35 46.72C36.4633 47.3267 35.25 47.63 33.71 47.63C31.89 47.63 30.14 47.0233 28.46 45.81C26.8267 44.5967 25.31 43.0567 23.91 41.19C22.51 39.2767 21.25 37.27 20.13 35.17C19.0567 33.07 18.1467 31.1333 17.4 29.36C17.2133 28.8467 17.05 28.3567 16.91 27.89C16.77 27.3767 16.7 26.8867 16.7 26.42C16.7 25.6267 16.9567 24.9733 17.47 24.46C17.8433 24.0867 18.3567 23.83 19.01 23.69C19.71 23.55 20.7133 23.48 22.02 23.48C24.4933 23.48 26.5 22.8033 28.04 21.45C29.58 20.0967 30.35 18.3467 30.35 16.2C30.35 13.8667 29.4633 12.1633 27.69 11.09C25.9633 10.0167 23.84 9.48 21.32 9.48C19.2667 9.48 17.12 9.80667 14.88 10.46C14.74 13.4933 14.4133 16.97 13.9 20.89C13.62 23.2233 13.3633 25.5333 13.13 27.82C12.9433 30.1067 12.85 32.1833 12.85 34.05C12.85 35.6833 12.99 37.13 13.27 38.39C13.5967 39.6033 14.2267 40.6533 15.16 41.54C15.8133 42.1933 16.14 42.8933 16.14 43.64C16.14 44.6667 15.5567 45.6 14.39 46.44C13.2233 47.28 11.7067 47.7 9.84 47.7Z"/>
</mask>
<path d="M8.09 47.42L7.77377 48.3687L7.7848 48.3724L7.79591 48.3758L8.09 47.42ZM6.69 46.09L5.80765 46.5606L5.80765 46.5606L6.69 46.09ZM6.34 39.3L5.34772 39.176L5.34599 39.1898L5.34465 39.2037L6.34 39.3ZM6.9 34.96L5.91256 34.802L5.9105 34.8149L5.90877 34.8278L6.9 34.96ZM7.88 27.26L6.88674 27.1441L6.88578 27.1523L6.88496 27.1605L7.88 27.26ZM8.02 12.77L9.00995 12.6286L8.81374 11.2551L7.57279 11.8756L8.02 12.77ZM7.04 13.19L7.31472 14.1515L7.35343 14.1405L7.39113 14.1263L7.04 13.19ZM5.22 12.63L4.25524 12.8931L4.27028 12.9483L4.29152 13.0014L5.22 12.63ZM6.06 7.31L5.27912 6.68529L5.27512 6.69035L6.06 7.31ZM9.35 4.79L9.80864 5.67862L9.82409 5.67064L9.83925 5.66214L9.35 4.79ZM15.44 2.48L15.6524 3.45717L15.6602 3.45549L15.6679 3.45369L15.44 2.48ZM29.37 3.25L28.9533 4.15906L28.9533 4.15907L29.37 3.25ZM34.55 21.52L33.7009 20.9917L33.6967 20.9986L33.6925 21.0055L34.55 21.52ZM29.65 26.7L30.2047 27.5321L30.2091 27.5291L29.65 26.7ZM23.63 29.29L23.4296 28.3103L22.0025 28.6022L22.7877 29.8291L23.63 29.29ZM26.01 32.79L25.1985 33.3743L25.206 33.3848L25.2138 33.3951L26.01 32.79ZM28.67 35.94L27.945 36.6288L27.9508 36.6348L28.67 35.94ZM38.75 39.93L38.9144 40.9164L38.9144 40.9164L38.75 39.93ZM39.45 40.28L38.618 40.8347L38.6729 40.9171L38.7429 40.9871L39.45 40.28ZM39.24 44.48L40.1616 44.8681L40.1651 44.8598L40.1685 44.8514L39.24 44.48ZM37.35 46.72L36.7853 45.8947L36.7853 45.8947L37.35 46.72ZM28.46 45.81L27.8636 46.6128L27.8745 46.6207L28.46 45.81ZM23.91 41.19L23.1029 41.7806L23.11 41.79L23.91 41.19ZM20.13 35.17L19.2396 35.6251L19.2435 35.6329L19.2476 35.6406L20.13 35.17ZM17.4 29.36L16.4602 29.7017L16.4687 29.7251L16.4784 29.7481L17.4 29.36ZM16.91 27.89L15.9452 28.1531L15.9486 28.1653L15.9522 28.1773L16.91 27.89ZM17.47 24.46L16.7629 23.7529L16.7629 23.7529L17.47 24.46ZM19.01 23.69L18.8139 22.7093L18.8005 22.7122L19.01 23.69ZM28.04 21.45L28.7001 22.2012L28.7001 22.2012L28.04 21.45ZM27.69 11.09L27.162 11.9393L27.1722 11.9455L27.69 11.09ZM14.88 10.46L14.6 9.5L13.914 9.70008L13.8811 10.4139L14.88 10.46ZM13.9 20.89L12.9084 20.7601L12.9071 20.7709L13.9 20.89ZM13.13 27.82L12.1352 27.7185L12.1341 27.7286L12.1333 27.7386L13.13 27.82ZM13.27 38.39L12.2938 38.6069L12.2986 38.6286L12.3044 38.65L13.27 38.39ZM15.16 41.54L15.8671 40.8329L15.858 40.8238L15.8488 40.815L15.16 41.54ZM14.39 46.44L13.8057 45.6285L13.8057 45.6285L14.39 46.44ZM9.84 47.7V46.7C9.39197 46.7 8.90798 46.6254 8.38409 46.4642L8.09 47.42L7.79591 48.3758C8.48536 48.5879 9.16803 48.7 9.84 48.7V47.7ZM8.09 47.42L8.40623 46.4713C8.16294 46.3902 7.86753 46.1729 7.57235 45.6194L6.69 46.09L5.80765 46.5606C6.25914 47.4071 6.89706 48.0764 7.77377 48.3687L8.09 47.42ZM6.69 46.09L7.57235 45.6194C7.31645 45.1396 7.13 44.267 7.13 42.87H6.13H5.13C5.13 44.3663 5.31689 45.6404 5.80765 46.5606L6.69 46.09ZM6.13 42.87H7.13C7.13 41.9813 7.19695 40.8265 7.33535 39.3963L6.34 39.3L5.34465 39.2037C5.20305 40.6669 5.13 41.892 5.13 42.87H6.13ZM6.34 39.3L7.33228 39.424C7.51863 37.9332 7.70494 36.4893 7.89123 35.0922L6.9 34.96L5.90877 34.8278C5.72172 36.2307 5.53471 37.6801 5.34772 39.176L6.34 39.3ZM6.9 34.96L7.88744 35.118C8.2644 32.762 8.59344 30.1755 8.87504 27.3595L7.88 27.26L6.88496 27.1605C6.60656 29.9445 6.28227 32.4913 5.91256 34.802L6.9 34.96ZM7.88 27.26L8.87326 27.3759C9.20431 24.5383 9.37 21.723 9.37 18.93H8.37H7.37C7.37 21.6437 7.20902 24.3817 6.88674 27.1441L7.88 27.26ZM8.37 18.93H9.37C9.37 17.9342 9.34629 16.893 9.29906 15.8066L8.3 15.85L7.30094 15.8934C7.34704 16.9537 7.37 17.9658 7.37 18.93H8.37ZM8.3 15.85L9.29906 15.8066C9.25108 14.7032 9.15496 13.6437 9.00995 12.6286L8.02 12.77L7.03005 12.9114C7.16504 13.8563 7.25558 14.8502 7.30094 15.8934L8.3 15.85ZM8.02 12.77L7.57279 11.8756C7.33115 11.9964 7.03784 12.1228 6.68887 12.2537L7.04 13.19L7.39113 14.1263C7.78883 13.9772 8.14885 13.8236 8.46721 13.6644L8.02 12.77ZM7.04 13.19L6.76528 12.2285C6.49118 12.3068 6.30867 12.33 6.2 12.33V13.33V14.33C6.558 14.33 6.93549 14.2599 7.31472 14.1515L7.04 13.19ZM6.2 13.33V12.33C6.16677 12.33 6.15504 12.3259 6.15842 12.3269C6.16312 12.3283 6.17433 12.3328 6.18624 12.3413C6.19769 12.3494 6.19913 12.3537 6.19266 12.3449C6.18539 12.335 6.16868 12.3091 6.14848 12.2586L5.22 12.63L4.29152 13.0014C4.43805 13.3677 4.66977 13.7159 5.02376 13.9687C5.38309 14.2254 5.79321 14.33 6.2 14.33V13.33ZM5.22 12.63L6.18476 12.3669C6.07275 11.9562 6.01 11.4638 6.01 10.88H5.01H4.01C4.01 11.6028 4.08725 12.2772 4.25524 12.8931L5.22 12.63ZM5.01 10.88H6.01C6.01 9.53897 6.32335 8.59025 6.84488 7.92964L6.06 7.31L5.27512 6.69035C4.39665 7.80307 4.01 9.23436 4.01 10.88H5.01ZM6.06 7.31L6.84087 7.93469C7.47419 7.14304 8.44418 6.38286 9.80864 5.67862L9.35 4.79L8.89136 3.90138C7.36249 4.69047 6.13914 5.61029 5.27913 6.6853L6.06 7.31ZM9.35 4.79L9.83925 5.66214C11.6659 4.63743 13.6026 3.90279 15.6524 3.45717L15.44 2.48L15.2276 1.50282C12.9841 1.99054 10.8608 2.7959 8.86075 3.91785L9.35 4.79ZM15.44 2.48L15.6679 3.45369C17.7974 2.9553 19.7971 2.71 21.67 2.71V1.71V0.709999C19.6229 0.709999 17.4693 0.978032 15.2121 1.50631L15.44 2.48ZM21.67 1.71V2.71C24.4443 2.71 26.8649 3.20186 28.9533 4.15906L29.37 3.25L29.7867 2.34094C27.3951 1.24481 24.6823 0.709999 21.67 0.709999V1.71ZM29.37 3.25L28.9533 4.15907C31.0427 5.11668 32.6434 6.44911 33.7912 8.14947L34.62 7.59L35.4489 7.03053C34.0766 4.99755 32.1773 3.43665 29.7867 2.34093L29.37 3.25ZM34.62 7.59L33.7912 8.14947C34.9225 9.82561 35.51 11.8632 35.51 14.31H36.51H37.51C37.51 11.5301 36.8375 9.08772 35.4489 7.03053L34.62 7.59ZM36.51 14.31H35.51C35.51 16.8482 34.8997 19.0651 33.7009 20.9917L34.55 21.52L35.3991 22.0483C36.8136 19.7749 37.51 17.1852 37.51 14.31H36.51ZM34.55 21.52L33.6925 21.0055C32.5068 22.9816 30.9748 24.6004 29.0909 25.8709L29.65 26.7L30.2091 27.5291C32.3385 26.093 34.0732 24.2584 35.4075 22.0345L34.55 21.52ZM29.65 26.7L29.0953 25.8679C27.2295 27.1118 25.3417 27.9192 23.4296 28.3103L23.63 29.29L23.8304 30.2697C26.025 29.8208 28.1505 28.9015 30.2047 27.532L29.65 26.7ZM23.63 29.29L22.7877 29.8291C23.5446 31.0116 24.3482 32.1934 25.1985 33.3743L26.01 32.79L26.8215 32.2057C25.9918 31.0533 25.2087 29.9017 24.4723 28.7509L23.63 29.29ZM26.01 32.79L25.2138 33.3951C26.1197 34.587 27.0299 35.6655 27.945 36.6287L28.67 35.94L29.395 35.2513C28.5367 34.3478 27.6736 33.3263 26.8062 32.1849L26.01 32.79ZM28.67 35.94L27.9508 36.6348C30.724 39.5053 33.6735 41.07 36.79 41.07V40.07V39.07C34.3998 39.07 31.936 37.8814 29.3892 35.2452L28.67 35.94ZM36.79 40.07V41.07C37.5756 41.07 38.2862 41.0211 38.9144 40.9164L38.75 39.93L38.5856 38.9436C38.0938 39.0256 37.4977 39.07 36.79 39.07V40.07ZM38.75 39.93L38.9144 40.9164C38.8948 40.9197 38.8605 40.9225 38.8161 40.9165C38.7709 40.9103 38.7268 40.8964 38.6878 40.8769C38.61 40.838 38.5938 40.7985 38.618 40.8347L39.45 40.28L40.2821 39.7253C40.1195 39.4815 39.8934 39.2437 39.5822 39.0881C39.2597 38.9268 38.9147 38.8888 38.5856 38.9436L38.75 39.93ZM39.45 40.28L38.7429 40.9871C38.677 40.9212 38.7034 40.9015 38.7397 41.0541C38.7736 41.1963 38.8 41.4211 38.8 41.75H39.8H40.8C40.8 41.3323 40.7681 40.9387 40.6853 40.5909C40.605 40.2535 40.4563 39.8721 40.1571 39.5729L39.45 40.28ZM39.8 41.75H38.8C38.8 42.4936 38.6439 43.2777 38.3115 44.1086L39.24 44.48L40.1685 44.8514C40.5828 43.8156 40.8 42.7798 40.8 41.75H39.8ZM39.24 44.48L38.3184 44.0919C38.0281 44.7814 37.5326 45.3834 36.7853 45.8947L37.35 46.72L37.9147 47.5453C38.9407 46.8433 39.7053 45.9519 40.1616 44.8681L39.24 44.48ZM37.35 46.72L36.7853 45.8947C36.1227 46.3481 35.1321 46.63 33.71 46.63V47.63V48.63C35.3679 48.63 36.804 48.3053 37.9147 47.5453L37.35 46.72ZM33.71 47.63V46.63C32.1286 46.63 30.5797 46.1073 29.0455 44.9993L28.46 45.81L27.8745 46.6207C29.7003 47.9393 31.6514 48.63 33.71 48.63V47.63ZM28.46 45.81L29.0563 45.0073C27.5107 43.859 26.0605 42.3907 24.71 40.59L23.91 41.19L23.11 41.79C24.5595 43.7226 26.1427 45.3343 27.8637 46.6127L28.46 45.81ZM23.91 41.19L24.717 40.5995C23.345 38.7244 22.1102 36.7579 21.0124 34.6994L20.13 35.17L19.2476 35.6406C20.3898 37.7821 21.675 39.8289 23.103 41.7805L23.91 41.19ZM20.13 35.17L21.0204 34.7149C19.9559 32.6322 19.0569 30.7182 18.3216 28.9719L17.4 29.36L16.4784 29.7481C17.2364 31.5485 18.1574 33.5078 19.2396 35.6251L20.13 35.17ZM17.4 29.36L18.3398 29.0183C18.1589 28.5208 18.0017 28.049 17.8678 27.6027L16.91 27.89L15.9522 28.1773C16.0983 28.6643 16.2678 29.1726 16.4602 29.7017L17.4 29.36ZM16.91 27.89L17.8748 27.6269C17.7549 27.1875 17.7 26.7864 17.7 26.42H16.7H15.7C15.7 26.987 15.7851 27.5658 15.9452 28.1531L16.91 27.89ZM16.7 26.42H17.7C17.7 25.8648 17.8696 25.4746 18.1771 25.1671L17.47 24.46L16.7629 23.7529C16.0437 24.4721 15.7 25.3885 15.7 26.42H16.7ZM17.47 24.46L18.1771 25.1671C18.3821 24.9621 18.7049 24.7781 19.2195 24.6678L19.01 23.69L18.8005 22.7122C18.0084 22.8819 17.3045 23.2112 16.7629 23.7529L17.47 24.46ZM19.01 23.69L19.2061 24.6706C19.809 24.55 20.7346 24.48 22.02 24.48V23.48V22.48C20.6921 22.48 19.611 22.55 18.8139 22.7094L19.01 23.69ZM22.02 23.48V24.48C24.6837 24.48 26.9417 23.7465 28.7001 22.2012L28.04 21.45L27.3799 20.6988C26.0583 21.8602 24.3029 22.48 22.02 22.48V23.48ZM28.04 21.45L28.7001 22.2012C30.4675 20.648 31.35 18.6189 31.35 16.2H30.35H29.35C29.35 18.0745 28.6925 19.5453 27.3799 20.6988L28.04 21.45ZM30.35 16.2H31.35C31.35 13.5693 30.3228 11.5146 28.2078 10.2345L27.69 11.09L27.1722 11.9455C28.6039 12.812 29.35 14.1641 29.35 16.2H30.35ZM27.69 11.09L28.2179 10.2407C26.2988 9.04773 23.982 8.48 21.32 8.48V9.48V10.48C23.698 10.48 25.6279 10.9856 27.1621 11.9393L27.69 11.09ZM21.32 9.48V8.48C19.16 8.48 16.9188 8.82368 14.6 9.5L14.88 10.46L15.16 11.42C17.3212 10.7896 19.3733 10.48 21.32 10.48V9.48ZM14.88 10.46L13.8811 10.4139C13.7427 13.4123 13.4192 16.8602 12.9085 20.7602L13.9 20.89L14.8915 21.0198C15.4075 17.0798 15.7373 13.5743 15.8789 10.5061L14.88 10.46ZM13.9 20.89L12.9071 20.7709C12.6264 23.1099 12.3691 25.4258 12.1352 27.7185L13.13 27.82L14.1248 27.9215C14.3576 25.6409 14.6136 23.3367 14.8929 21.0091L13.9 20.89ZM13.13 27.82L12.1333 27.7386C11.9449 30.0465 11.85 32.1509 11.85 34.05H12.85H13.85C13.85 32.2158 13.9417 30.1668 14.1267 27.9014L13.13 27.82ZM12.85 34.05H11.85C11.85 35.738 11.9945 37.2599 12.2938 38.6069L13.27 38.39L14.2462 38.1731C13.9855 37.0001 13.85 35.6286 13.85 34.05H12.85ZM13.27 38.39L12.3044 38.65C12.6801 40.0453 13.4081 41.255 14.4713 42.265L15.16 41.54L15.8488 40.815C15.0453 40.0517 14.5133 39.1613 14.2356 38.13L13.27 38.39ZM15.16 41.54L14.4529 42.2471C14.9659 42.7601 15.14 43.2186 15.14 43.64H16.14H17.14C17.14 42.5681 16.6608 41.6266 15.8671 40.8329L15.16 41.54ZM16.14 43.64H15.14C15.14 44.2282 14.8234 44.8957 13.8057 45.6285L14.39 46.44L14.9743 47.2515C16.2899 46.3043 17.14 45.1052 17.14 43.64H16.14ZM14.39 46.44L13.8057 45.6285C12.8537 46.3139 11.5594 46.7 9.84 46.7V47.7V48.7C11.8539 48.7 13.593 48.2461 14.9743 47.2515L14.39 46.44Z" fill="white" mask="url(#path-1-outside-1_1_3)"/>
</g>
<defs>
<filter id="filter0_d_1_3" x="0.00999451" y="0.709999" width="44.79" height="55.99" filterUnits="userSpaceOnUse" color-interpolation-filters="sRGB">
<feFlood flood-opacity="0" result="BackgroundImageFix"/>
<feColorMatrix in="SourceAlpha" type="matrix" values="0 0 0 0 0 0 0 0 0 0 0 0 0 0 0 0 0 0 127 0" result="hardAlpha"/>
<feOffset dy="4"/>
<feGaussianBlur stdDeviation="2"/>
<feComposite in2="hardAlpha" operator="out"/>
<feColorMatrix type="matrix" values="0 0 0 0 0 0 0 0 0 0 0 0 0 0 0 0 0 0 0.25 0"/>
<feBlend mode="normal" in2="BackgroundImageFix" result="effect1_dropShadow_1_3"/>
<feBlend mode="normal" in="SourceGraphic" in2="effect1_dropShadow_1_3" result="shape"/>
</filter>
</defs>
</svg>
