<svg width="138" height="160" viewBox="0 0 138 179" fill="none" xmlns="http://www.w3.org/2000/svg">
<g filter="url(#filter0_d_1_3)">
<mask id="path-1-outside-1_1_3" maskUnits="userSpaceOnUse" x="4" y="0" width="130" height="171" fill="black">
<rect fill="white" x="4" width="130" height="171"/>
<path d="M22.672 169.56C20.624 169.56 18.4907 169.219 16.272 168.536C14.224 167.853 12.5173 166.232 11.152 163.672C9.78667 161.112 9.104 157.187 9.104 151.896C9.104 148.483 9.36 144.131 9.872 138.84C10.5547 133.379 11.2373 128.088 11.92 122.968C13.2853 114.435 14.48 105.048 15.504 94.808C16.6987 84.568 17.296 74.4133 17.296 64.344C17.296 60.76 17.2107 57.0053 17.04 53.08C16.8693 49.1547 16.528 45.4 16.016 41.816C14.992 42.328 13.7973 42.84 12.432 43.352C11.2373 43.6933 10.2133 43.864 9.36 43.864C7.65333 43.864 6.45867 43.0107 5.776 41.304C5.264 39.4267 5.008 37.2933 5.008 34.904C5.008 29.4427 6.288 25.0907 8.848 21.848C11.5787 18.4347 15.5893 15.3627 20.88 12.632C27.8773 8.70665 35.3013 5.89066 43.152 4.18399C51.1733 2.30666 58.768 1.368 65.936 1.368C76.5173 1.368 85.904 3.24533 94.096 7C102.288 10.7547 108.688 16.0453 113.296 22.872C117.904 29.6987 120.208 37.8907 120.208 47.448C120.208 57.3467 117.819 66.136 113.04 73.816C108.432 81.496 102.459 87.8107 95.12 92.76C87.952 97.5387 80.6133 100.696 73.104 102.232C75.8347 106.499 78.736 110.765 81.808 115.032C85.0507 119.299 88.2933 123.139 91.536 126.552C101.264 136.621 111.163 141.656 121.232 141.656C123.963 141.656 126.352 141.485 128.4 141.144C129.424 140.973 130.277 141.4 130.96 142.424C131.813 143.277 132.24 145.069 132.24 147.8C132.24 151.043 131.557 154.371 130.192 157.784C128.827 161.027 126.523 163.757 123.28 165.976C120.037 168.195 115.6 169.304 109.968 169.304C103.312 169.304 96.912 167.085 90.768 162.648C84.7947 158.211 79.248 152.579 74.128 145.752C69.008 138.755 64.4 131.416 60.304 123.736C56.3787 116.056 53.0507 108.973 50.32 102.488C49.6373 100.611 49.04 98.8187 48.528 97.112C48.016 95.2347 47.76 93.4427 47.76 91.736C47.76 88.8347 48.6987 86.4453 50.576 84.568C51.9413 83.2027 53.8187 82.264 56.208 81.752C58.768 81.24 62.4373 80.984 67.216 80.984C76.2613 80.984 83.6 78.5093 89.232 73.56C94.864 68.6107 97.68 62.2107 97.68 54.36C97.68 45.8267 94.4373 39.5973 87.952 35.672C81.6373 31.7467 73.872 29.784 64.656 29.784C57.1467 29.784 49.296 30.9787 41.104 33.368C40.592 44.4613 39.3973 57.176 37.52 71.512C36.496 80.0453 35.5573 88.4933 34.704 96.856C34.0213 105.219 33.68 112.813 33.68 119.64C33.68 125.613 34.192 130.904 35.216 135.512C36.4107 139.949 38.7147 143.789 42.128 147.032C44.5173 149.421 45.712 151.981 45.712 154.712C45.712 158.467 43.5787 161.88 39.312 164.952C35.0453 168.024 29.4987 169.56 22.672 169.56Z"/>
</mask>
<path d="M22.672 169.56C20.624 169.56 18.4907 169.219 16.272 168.536C14.224 167.853 12.5173 166.232 11.152 163.672C9.78667 161.112 9.104 157.187 9.104 151.896C9.104 148.483 9.36 144.131 9.872 138.84C10.5547 133.379 11.2373 128.088 11.92 122.968C13.2853 114.435 14.48 105.048 15.504 94.808C16.6987 84.568 17.296 74.4133 17.296 64.344C17.296 60.76 17.2107 57.0053 17.04 53.08C16.8693 49.1547 16.528 45.4 16.016 41.816C14.992 42.328 13.7973 42.84 12.432 43.352C11.2373 43.6933 10.2133 43.864 9.36 43.864C7.65333 43.864 6.45867 43.0107 5.776 41.304C5.264 39.4267 5.008 37.2933 5.008 34.904C5.008 29.4427 6.288 25.0907 8.848 21.848C11.5787 18.4347 15.5893 15.3627 20.88 12.632C27.8773 8.70665 35.3013 5.89066 43.152 4.18399C51.1733 2.30666 58.768 1.368 65.936 1.368C76.5173 1.368 85.904 3.24533 94.096 7C102.288 10.7547 108.688 16.0453 113.296 22.872C117.904 29.6987 120.208 37.8907 120.208 47.448C120.208 57.3467 117.819 66.136 113.04 73.816C108.432 81.496 102.459 87.8107 95.12 92.76C87.952 97.5387 80.6133 100.696 73.104 102.232C75.8347 106.499 78.736 110.765 81.808 115.032C85.0507 119.299 88.2933 123.139 91.536 126.552C101.264 136.621 111.163 141.656 121.232 141.656C123.963 141.656 126.352 141.485 128.4 141.144C129.424 140.973 130.277 141.4 130.96 142.424C131.813 143.277 132.24 145.069 132.24 147.8C132.24 151.043 131.557 154.371 130.192 157.784C128.827 161.027 126.523 163.757 123.28 165.976C120.037 168.195 115.6 169.304 109.968 169.304C103.312 169.304 96.912 167.085 90.768 162.648C84.7947 158.211 79.248 152.579 74.128 145.752C69.008 138.755 64.4 131.416 60.304 123.736C56.3787 116.056 53.0507 108.973 50.32 102.488C49.6373 100.611 49.04 98.8187 48.528 97.112C48.016 95.2347 47.76 93.4427 47.76 91.736C47.76 88.8347 48.6987 86.4453 50.576 84.568C51.9413 83.2027 53.8187 82.264 56.208 81.752C58.768 81.24 62.4373 80.984 67.216 80.984C76.2613 80.984 83.6 78.5093 89.232 73.56C94.864 68.6107 97.68 62.2107 97.68 54.36C97.68 45.8267 94.4373 39.5973 87.952 35.672C81.6373 31.7467 73.872 29.784 64.656 29.784C57.1467 29.784 49.296 30.9787 41.104 33.368C40.592 44.4613 39.3973 57.176 37.52 71.512C36.496 80.0453 35.5573 88.4933 34.704 96.856C34.0213 105.219 33.68 112.813 33.68 119.64C33.68 125.613 34.192 130.904 35.216 135.512C36.4107 139.949 38.7147 143.789 42.128 147.032C44.5173 149.421 45.712 151.981 45.712 154.712C45.712 158.467 43.5787 161.88 39.312 164.952C35.0453 168.024 29.4987 169.56 22.672 169.56Z" fill="#171C7E" fill-opacity="0.92" shape-rendering="crispEdges"/>
<path d="M16.272 168.536L15.9558 169.485L15.9668 169.488L15.9779 169.492L16.272 168.536ZM11.152 163.672L10.2696 164.143L10.2696 164.143L11.152 163.672ZM9.872 138.84L8.87972 138.716L8.87799 138.73L8.87665 138.744L9.872 138.84ZM11.92 122.968L10.9326 122.81L10.9305 122.823L10.9288 122.836L11.92 122.968ZM15.504 94.808L14.5107 94.6921L14.5098 94.7003L14.509 94.7085L15.504 94.808ZM16.016 41.816L17.006 41.6746L16.8097 40.3011L15.5688 40.9216L16.016 41.816ZM12.432 43.352L12.7067 44.3135L12.7454 44.3025L12.7831 44.2883L12.432 43.352ZM5.776 41.304L4.81124 41.5671L4.82628 41.6223L4.84752 41.6754L5.776 41.304ZM8.848 21.848L8.06712 21.2233L8.06312 21.2283L8.848 21.848ZM20.88 12.632L21.3386 13.5206L21.3541 13.5126L21.3693 13.5041L20.88 12.632ZM43.152 4.18399L43.3644 5.16117L43.3722 5.15948L43.3799 5.15768L43.152 4.18399ZM94.096 7L93.6794 7.90906L93.6794 7.90907L94.096 7ZM113.04 73.816L112.191 73.2877L112.187 73.2946L112.183 73.3015L113.04 73.816ZM95.12 92.76L95.6747 93.5921L95.6791 93.5891L95.12 92.76ZM73.104 102.232L72.9036 101.252L71.4765 101.544L72.2617 102.771L73.104 102.232ZM81.808 115.032L80.9965 115.616L81.004 115.627L81.0118 115.637L81.808 115.032ZM91.536 126.552L90.811 127.241L90.8168 127.247L91.536 126.552ZM128.4 141.144L128.564 142.13L128.564 142.13L128.4 141.144ZM130.96 142.424L130.128 142.979L130.183 143.061L130.253 143.131L130.96 142.424ZM130.192 157.784L131.114 158.172L131.117 158.164L131.12 158.155L130.192 157.784ZM123.28 165.976L122.715 165.151L122.715 165.151L123.28 165.976ZM90.768 162.648L90.1716 163.451L90.1825 163.459L90.768 162.648ZM74.128 145.752L73.3209 146.343L73.328 146.352L74.128 145.752ZM60.304 123.736L59.4136 124.191L59.4175 124.199L59.4216 124.207L60.304 123.736ZM50.32 102.488L49.3802 102.83L49.3887 102.853L49.3984 102.876L50.32 102.488ZM48.528 97.112L47.5632 97.3751L47.5666 97.3873L47.5702 97.3993L48.528 97.112ZM50.576 84.568L49.8689 83.8609L49.8689 83.8609L50.576 84.568ZM56.208 81.752L56.0119 80.7713L55.9985 80.7742L56.208 81.752ZM89.232 73.56L89.8921 74.3112L89.8921 74.3112L89.232 73.56ZM87.952 35.672L87.424 36.5213L87.4342 36.5275L87.952 35.672ZM41.104 33.368L40.824 32.408L40.138 32.6081L40.1051 33.3219L41.104 33.368ZM37.52 71.512L36.5284 71.3821L36.5271 71.3928L37.52 71.512ZM34.704 96.856L33.7092 96.7545L33.7081 96.7645L33.7073 96.7746L34.704 96.856ZM35.216 135.512L34.2398 135.729L34.2446 135.751L34.2504 135.772L35.216 135.512ZM42.128 147.032L42.8351 146.325L42.826 146.316L42.8168 146.307L42.128 147.032ZM39.312 164.952L38.7277 164.14L38.7277 164.14L39.312 164.952ZM22.672 169.56V168.56C20.736 168.56 18.702 168.237 16.5661 167.58L16.272 168.536L15.9779 169.492C18.2794 170.2 20.512 170.56 22.672 170.56V169.56ZM16.272 168.536L16.5882 167.587C14.8569 167.01 13.3215 165.615 12.0344 163.201L11.152 163.672L10.2696 164.143C11.7131 166.849 13.5911 168.696 15.9558 169.485L16.272 168.536ZM11.152 163.672L12.0344 163.201C10.7864 160.862 10.104 157.137 10.104 151.896H9.104H8.104C8.104 157.236 8.78689 161.362 10.2696 164.143L11.152 163.672ZM9.104 151.896H10.104C10.104 148.527 10.3569 144.21 10.8674 138.936L9.872 138.84L8.87665 138.744C8.36305 144.051 8.104 148.438 8.104 151.896H9.104ZM9.872 138.84L10.8643 138.964C11.5466 133.505 12.2289 128.217 12.9112 123.1L11.92 122.968L10.9288 122.836C10.2457 127.959 9.56271 133.252 8.87972 138.716L9.872 138.84ZM11.92 122.968L12.9074 123.126C14.2764 114.57 15.4734 105.164 16.499 94.9075L15.504 94.808L14.509 94.7085C13.4866 104.932 12.2943 114.299 10.9326 122.81L11.92 122.968ZM15.504 94.808L16.4973 94.9239C17.6963 84.6463 18.296 74.453 18.296 64.344H17.296H16.296C16.296 74.3737 15.701 84.4897 14.5107 94.6921L15.504 94.808ZM17.296 64.344H18.296C18.296 60.7442 18.2103 56.975 18.0391 53.0366L17.04 53.08L16.0409 53.1234C16.211 57.0357 16.296 60.7758 16.296 64.344H17.296ZM17.04 53.08L18.0391 53.0366C17.8671 49.0812 17.523 45.2937 17.006 41.6746L16.016 41.816L15.0261 41.9574C15.533 45.5063 15.8716 49.2281 16.0409 53.1234L17.04 53.08ZM16.016 41.816L15.5688 40.9216C14.5832 41.4144 13.4218 41.9128 12.0809 42.4157L12.432 43.352L12.7831 44.2883C14.1728 43.7672 15.4008 43.2416 16.4632 42.7104L16.016 41.816ZM12.432 43.352L12.1573 42.3905C11.0152 42.7168 10.0887 42.864 9.36 42.864V43.864V44.864C10.338 44.864 11.4595 44.6699 12.7067 44.3135L12.432 43.352ZM9.36 43.864V42.864C8.68012 42.864 8.16658 42.6969 7.76524 42.4103C7.35856 42.1198 6.99262 41.6529 6.70448 40.9326L5.776 41.304L4.84752 41.6754C5.24205 42.6617 5.81477 43.4749 6.60276 44.0377C7.39609 44.6044 8.33321 44.864 9.36 44.864V43.864ZM5.776 41.304L6.74076 41.0409C6.25675 39.2662 6.008 37.2238 6.008 34.904H5.008H4.008C4.008 37.3628 4.27125 39.5872 4.81124 41.5671L5.776 41.304ZM5.008 34.904H6.008C6.008 29.595 7.25135 25.4842 9.63288 22.4676L8.848 21.848L8.06312 21.2283C5.32465 24.6971 4.008 29.2904 4.008 34.904H5.008ZM8.848 21.848L9.62887 22.4727C12.2462 19.201 16.1302 16.2089 21.3386 13.5206L20.88 12.632L20.4214 11.7434C15.0485 14.5165 10.9111 17.6683 8.06713 21.2233L8.848 21.848ZM20.88 12.632L21.3693 13.5041C28.2799 9.62742 35.6106 6.84678 43.3644 5.16117L43.152 4.18399L42.9396 3.20681C34.9921 4.93453 27.4748 7.78589 20.3908 11.7598L20.88 12.632ZM43.152 4.18399L43.3799 5.15768C51.3374 3.29529 58.8551 2.368 65.936 2.368V1.368V0.367996C58.6809 0.367996 51.0093 1.31803 42.9241 3.2103L43.152 4.18399ZM65.936 1.368V2.368C76.3983 2.368 85.6389 4.22386 93.6794 7.90906L94.096 7L94.5127 6.09094C86.1691 2.2668 76.6363 0.367996 65.936 0.367996V1.368ZM94.096 7L93.6794 7.90907C101.721 11.5947 107.971 16.7711 112.467 23.4315L113.296 22.872L114.125 22.3125C109.405 15.3195 102.855 9.91464 94.5127 6.09093L94.096 7ZM113.296 22.872L112.467 23.4315C116.947 30.0676 119.208 38.0572 119.208 47.448H120.208H121.208C121.208 37.7241 118.861 29.3297 114.125 22.3125L113.296 22.872ZM120.208 47.448H119.208C119.208 57.1782 116.862 65.7811 112.191 73.2877L113.04 73.816L113.889 74.3443C118.776 66.4909 121.208 57.5152 121.208 47.448H120.208ZM113.04 73.816L112.183 73.3015C107.649 80.8576 101.777 87.0644 94.5609 91.9309L95.12 92.76L95.6791 93.5891C103.141 88.557 109.215 82.1344 113.898 74.3305L113.04 73.816ZM95.12 92.76L94.5653 91.9279C87.4915 96.6438 80.2717 99.7452 72.9036 101.252L73.104 102.232L73.3044 103.212C80.955 101.647 88.4125 98.4335 95.6747 93.592L95.12 92.76ZM73.104 102.232L72.2617 102.771C75.0026 107.054 77.9142 111.335 80.9965 115.616L81.808 115.032L82.6195 114.448C79.5578 110.195 76.6667 105.944 73.9463 101.693L73.104 102.232ZM81.808 115.032L81.0118 115.637C84.2737 119.929 87.5399 123.798 90.811 127.241L91.536 126.552L92.261 125.863C89.0467 122.48 85.8276 118.668 82.6042 114.427L81.808 115.032ZM91.536 126.552L90.8168 127.247C100.658 137.433 110.799 142.656 121.232 142.656V141.656V140.656C111.526 140.656 101.87 135.809 92.2552 125.857L91.536 126.552ZM121.232 141.656V142.656C124.002 142.656 126.448 142.483 128.564 142.13L128.4 141.144L128.236 140.158C126.256 140.488 123.924 140.656 121.232 140.656V141.656ZM128.4 141.144L128.564 142.13C128.887 142.077 129.14 142.12 129.361 142.23C129.593 142.347 129.856 142.57 130.128 142.979L130.96 142.424L131.792 141.869C131.382 141.254 130.876 140.752 130.255 140.442C129.623 140.125 128.937 140.041 128.236 140.158L128.4 141.144ZM130.96 142.424L130.253 143.131C130.497 143.375 130.756 143.836 130.947 144.64C131.136 145.433 131.24 146.479 131.24 147.8H132.24H133.24C133.24 146.39 133.131 145.175 132.893 144.176C132.657 143.188 132.276 142.326 131.667 141.717L130.96 142.424ZM132.24 147.8H131.24C131.24 150.9 130.588 154.102 129.264 157.413L130.192 157.784L131.12 158.155C132.527 154.64 133.24 151.186 133.24 147.8H132.24ZM130.192 157.784L129.27 157.396C127.988 160.441 125.819 163.027 122.715 165.151L123.28 165.976L123.845 166.801C127.227 164.487 129.665 161.612 131.114 158.172L130.192 157.784ZM123.28 165.976L122.715 165.151C119.697 167.216 115.482 168.304 109.968 168.304V169.304V170.304C115.718 170.304 120.378 169.173 123.845 166.801L123.28 165.976ZM109.968 169.304V168.304C103.551 168.304 97.3517 166.169 91.3535 161.837L90.768 162.648L90.1825 163.459C96.4724 168.001 103.073 170.304 109.968 170.304V169.304ZM90.768 162.648L91.3643 161.845C85.4787 157.473 79.9985 151.913 74.928 145.152L74.128 145.752L73.328 146.352C78.4975 153.245 84.1107 158.948 90.1717 163.451L90.768 162.648ZM74.128 145.752L74.935 145.161C69.8431 138.202 65.2602 130.904 61.1864 123.265L60.304 123.736L59.4216 124.207C63.5398 131.928 68.173 139.307 73.321 146.343L74.128 145.752ZM60.304 123.736L61.1944 123.281C57.2779 115.618 53.9609 108.558 51.2416 102.1L50.32 102.488L49.3984 102.876C52.1404 109.388 55.4794 116.494 59.4136 124.191L60.304 123.736ZM50.32 102.488L51.2598 102.146C50.5829 100.285 49.9917 98.511 49.4858 96.8247L48.528 97.112L47.5702 97.3993C48.0883 99.1263 48.6918 100.937 49.3802 102.83L50.32 102.488ZM48.528 97.112L49.4928 96.8489C49.0009 95.0455 48.76 93.3424 48.76 91.736H47.76H46.76C46.76 93.543 47.0311 95.4238 47.5632 97.3751L48.528 97.112ZM47.76 91.736H48.76C48.76 89.0728 49.6116 86.9466 51.2831 85.2751L50.576 84.568L49.8689 83.8609C47.7857 85.9441 46.76 88.5965 46.76 91.736H47.76ZM50.576 84.568L51.2831 85.2751C52.4801 84.0781 54.1669 83.2121 56.4175 82.7298L56.208 81.752L55.9985 80.7742C53.4704 81.3159 51.4025 82.3272 49.8689 83.8609L50.576 84.568ZM56.208 81.752L56.4041 82.7326C58.867 82.24 62.4586 81.984 67.216 81.984V80.984V79.984C62.4161 79.984 58.669 80.24 56.0119 80.7714L56.208 81.752ZM67.216 80.984V81.984C76.4517 81.984 84.0417 79.4525 89.8921 74.3112L89.232 73.56L88.5719 72.8088C83.1584 77.5662 76.0709 79.984 67.216 79.984V80.984ZM89.232 73.56L89.8921 74.3112C95.7515 69.162 98.68 62.4829 98.68 54.36H97.68H96.68C96.68 61.9384 93.9765 68.0593 88.5719 72.8088L89.232 73.56ZM97.68 54.36H98.68C98.68 45.5293 95.2968 38.9486 88.4698 34.8165L87.952 35.672L87.4342 36.5275C93.5779 40.246 96.68 46.1241 96.68 54.36H97.68ZM87.952 35.672L88.4799 34.8227C81.9728 30.7777 74.014 28.784 64.656 28.784V29.784V30.784C73.73 30.784 81.3019 32.7156 87.4241 36.5213L87.952 35.672ZM64.656 29.784V28.784C57.04 28.784 49.0948 29.9957 40.824 32.408L41.104 33.368L41.384 34.328C49.4972 31.9616 57.2533 30.784 64.656 30.784V29.784ZM41.104 33.368L40.1051 33.3219C39.5947 44.3803 38.4032 57.0662 36.5285 71.3821L37.52 71.512L38.5115 71.6418C40.3915 57.2858 41.5893 44.5423 42.1029 33.4141L41.104 33.368ZM37.52 71.512L36.5271 71.3928C35.5024 79.9319 34.5631 88.3858 33.7092 96.7545L34.704 96.856L35.6988 96.9575C36.5516 88.6009 37.4896 80.1587 38.5129 71.6311L37.52 71.512ZM34.704 96.856L33.7073 96.7746C33.0229 105.159 32.68 112.781 32.68 119.64H33.68H34.68C34.68 112.846 35.0198 105.279 35.7007 96.9374L34.704 96.856ZM33.68 119.64H32.68C32.68 125.668 33.1965 131.034 34.2398 135.729L35.216 135.512L36.1922 135.295C35.1875 130.774 34.68 125.559 34.68 119.64H33.68ZM35.216 135.512L34.2504 135.772C35.4941 140.391 37.8961 144.391 41.4393 147.757L42.128 147.032L42.8168 146.307C39.5333 143.188 37.3273 139.507 36.1816 135.252L35.216 135.512ZM42.128 147.032L41.4209 147.739C43.6699 149.988 44.712 152.307 44.712 154.712H45.712H46.712C46.712 151.656 45.3648 148.855 42.8351 146.325L42.128 147.032ZM45.712 154.712H44.712C44.712 158.028 42.8454 161.176 38.7277 164.14L39.312 164.952L39.8963 165.764C44.3119 162.584 46.712 158.905 46.712 154.712H45.712ZM39.312 164.952L38.7277 164.14C34.6757 167.058 29.3514 168.56 22.672 168.56V169.56V170.56C29.646 170.56 35.415 168.99 39.8963 165.764L39.312 164.952Z" fill="#DCDDF2" mask="url(#path-1-outside-1_1_3)"/>
</g>
<defs>
<filter id="filter0_d_1_3" x="0.00799561" y="0.367996" width="137.232" height="178.192" filterUnits="userSpaceOnUse" color-interpolation-filters="sRGB">
<feFlood flood-opacity="0" result="BackgroundImageFix"/>
<feColorMatrix in="SourceAlpha" type="matrix" values="0 0 0 0 0 0 0 0 0 0 0 0 0 0 0 0 0 0 127 0" result="hardAlpha"/>
<feOffset dy="4"/>
<feGaussianBlur stdDeviation="2"/>
<feComposite in2="hardAlpha" operator="out"/>
<feColorMatrix type="matrix" values="0 0 0 0 0 0 0 0 0 0 0 0 0 0 0 0 0 0 0.25 0"/>
<feBlend mode="normal" in2="BackgroundImageFix" result="effect1_dropShadow_1_3"/>
<feBlend mode="normal" in="SourceGraphic" in2="effect1_dropShadow_1_3" result="shape"/>
</filter>
</defs>
</svg>
